<?xml version="1.0" standalone="no"?>
<!DOCTYPE svg PUBLIC "-//W3C//DTD SVG 20010904//EN"
 "http://www.w3.org/TR/2001/REC-SVG-20010904/DTD/svg10.dtd">
<svg version="1.0" xmlns="http://www.w3.org/2000/svg"
 width="968.000000pt" height="968.000000pt" viewBox="0 0 968.000000 968.000000"
 preserveAspectRatio="xMidYMid meet">
<metadata>
Created by potrace 1.14, written by Peter Selinger 2001-2017
</metadata>
<g transform="translate(0.000000,968.000000) scale(0.100000,-0.100000)"
fill="#000000" stroke="none">
<path d="M3205 7692 c-22 -7 -49 -15 -60 -16 -11 -2 -27 -6 -35 -9 -8 -3 -46
-16 -85 -27 -38 -12 -88 -28 -110 -35 -22 -8 -49 -16 -60 -18 -11 -2 -27 -7
-35 -10 -20 -8 -221 -69 -240 -72 -8 -2 -16 -4 -17 -5 -2 -2 -6 -3 -10 -4 -5
-1 -55 -16 -113 -34 -58 -18 -148 -46 -200 -62 -52 -16 -135 -41 -185 -56 -49
-15 -93 -29 -97 -30 -5 -1 -10 -3 -13 -4 -3 -1 -9 -4 -15 -5 -5 -1 -11 -3 -12
-5 -2 -1 -11 -3 -20 -5 -10 -2 -49 -13 -87 -25 -39 -12 -72 -20 -74 -18 -2 2
-11 -3 -20 -11 -10 -7 -17 -11 -17 -8 0 3 -30 -5 -67 -17 -38 -13 -71 -24 -75
-25 -5 0 -10 -2 -13 -2 -3 -1 -8 -2 -12 -3 -5 -1 -42 -13 -83 -25 -41 -13 -77
-23 -80 -23 -3 0 -21 -6 -40 -13 -19 -8 -69 -23 -110 -35 -41 -12 -82 -24 -90
-27 -12 -5 -109 -34 -155 -46 -157 -43 -220 -85 -265 -178 -16 -33 -27 -59
-24 -59 2 0 -1 -11 -6 -25 -7 -18 -6 -25 3 -25 8 0 8 -3 2 -8 -14 -10 -11 -40
18 -147 5 -18 49 -159 57 -185 19 -57 72 -234 74 -246 1 -7 5 -17 9 -20 4 -4
7 -16 7 -26 0 -11 7 -32 15 -48 17 -33 13 -36 -63 -46 -74 -9 -131 -23 -166
-40 -57 -29 -124 -117 -133 -174 -8 -49 -11 -65 -13 -65 -1 0 -4 -18 -6 -40
-4 -45 -9 -81 -18 -141 -8 -48 -15 -110 -22 -179 -2 -27 -6 -63 -8 -80 -2 -16
-7 -59 -10 -95 -4 -36 -9 -83 -12 -105 -3 -22 -7 -65 -9 -95 -2 -30 -6 -84 -9
-120 -3 -36 -8 -100 -11 -142 -9 -108 -13 -196 -20 -393 -4 -93 -9 -173 -11
-177 -3 -4 0 -8 6 -8 7 0 8 -6 2 -17 -11 -24 -6 -235 8 -298 5 -27 19 -62 30
-77 11 -15 20 -32 20 -38 0 -5 4 -10 9 -10 4 0 44 -36 87 -80 44 -44 83 -80
88 -80 5 0 22 -13 38 -30 15 -16 32 -30 37 -30 5 0 11 -3 13 -7 7 -17 126 -90
163 -101 39 -11 41 -13 42 -54 1 -24 5 -74 8 -113 3 -38 8 -90 10 -115 8 -93
18 -115 74 -164 13 -12 40 -36 59 -53 18 -18 38 -33 43 -33 5 0 9 -4 9 -9 0
-14 66 -38 112 -40 9 -1 19 -10 23 -20 11 -37 61 -79 111 -96 40 -13 82 -15
239 -11 105 3 206 8 225 11 19 3 51 7 70 10 62 7 89 19 129 58 38 37 38 37 62
19 57 -44 176 -76 279 -76 60 0 148 12 168 23 10 5 21 9 25 9 39 0 172 86 219
141 l32 39 54 -49 c55 -51 162 -108 213 -114 16 -2 34 -7 40 -10 8 -5 155 -18
194 -17 21 1 174 42 214 58 22 9 41 21 41 27 0 6 3 7 7 4 3 -4 12 -2 19 4 9 7
19 4 37 -13 48 -45 57 -48 117 -54 19 -1 35 -3 35 -4 0 -1 45 -2 100 -4 104
-2 159 6 186 30 13 12 18 11 36 -1 11 -8 33 -17 49 -20 32 -7 156 -6 219 1 22
2 57 6 78 8 21 2 40 6 44 9 3 3 28 3 57 0 28 -4 101 -7 162 -7 104 -1 113 1
151 26 23 15 47 40 54 57 7 16 24 34 36 40 21 10 26 6 53 -37 25 -41 90 -96
90 -76 0 3 6 1 13 -5 14 -11 245 -9 265 3 6 3 22 7 37 8 15 2 44 17 65 35 l38
33 16 -25 c15 -23 64 -55 96 -62 8 -2 69 -5 135 -6 117 -3 205 8 205 25 0 4 5
8 11 8 14 0 39 25 39 39 0 6 4 11 8 11 5 0 13 12 19 28 10 24 11 25 12 5 1
-23 76 -106 101 -111 8 -2 24 -6 35 -9 43 -11 242 -11 280 0 47 14 112 75 121
114 4 16 21 42 39 60 18 17 36 41 40 54 l8 23 12 -25 c7 -13 23 -53 35 -89 45
-133 82 -155 270 -165 112 -5 194 31 227 101 9 18 36 45 59 60 24 15 41 31 38
36 -3 4 -1 8 5 8 5 0 18 13 27 30 14 22 21 27 31 18 7 -6 13 -15 13 -20 0 -21
81 -114 142 -163 35 -28 141 -76 189 -85 30 -6 61 -14 69 -17 34 -13 242 -20
285 -9 25 6 136 36 150 39 41 12 110 56 159 102 18 17 53 41 78 54 47 25 90
56 138 101 119 110 122 113 166 176 30 42 56 94 47 94 -5 0 -2 4 4 8 7 4 15
19 17 32 2 14 5 26 7 28 2 2 2 2 14 57 4 22 10 47 12 55 2 8 5 53 8 99 3 69 7
86 24 97 11 8 27 21 35 29 8 8 17 15 21 15 4 0 12 6 19 12 7 7 39 36 72 63 79
67 194 183 194 195 0 6 7 10 15 10 8 0 15 3 15 8 0 4 14 23 30 42 17 19 43 53
58 75 15 22 29 42 32 45 26 23 92 221 95 280 0 8 3 20 7 26 13 21 -1 249 -18
276 -3 4 -8 21 -10 36 -9 45 -60 144 -112 213 l-49 66 29 39 c16 21 38 49 49
62 11 13 25 35 30 50 12 30 69 209 74 232 2 8 4 16 5 18 2 1 3 5 4 10 1 4 5
13 9 20 5 6 6 12 4 12 -3 0 3 27 13 60 10 33 15 62 10 65 -4 2 -10 24 -14 47
-10 62 -53 125 -107 160 -25 16 -26 20 -19 60 8 43 20 115 26 153 1 11 3 20 4
20 2 0 8 32 15 83 3 24 10 66 16 95 5 29 12 67 15 86 3 18 8 43 10 55 2 11 9
48 15 81 14 85 17 99 19 105 1 3 2 9 1 13 -1 5 6 45 14 90 9 45 18 97 20 114
3 18 9 50 13 70 5 21 8 48 7 61 -1 12 1 22 4 22 8 0 5 48 -4 85 -23 86 -113
168 -200 180 -28 4 -86 14 -115 20 -14 3 -40 8 -58 10 -17 3 -47 7 -65 10 -17
4 -45 8 -62 11 -16 2 -37 6 -45 9 -8 2 -33 7 -55 10 -22 4 -51 8 -65 11 -14 3
-36 7 -50 9 -27 4 -192 33 -225 39 -38 7 -110 19 -125 21 -16 2 -93 15 -125
21 -11 2 -32 6 -47 9 -16 3 -43 8 -60 11 -18 3 -42 7 -53 9 -46 7 -140 23
-210 35 -89 16 -109 20 -145 27 -19 3 -39 7 -45 8 -5 1 -12 3 -15 4 -3 2 -18
4 -35 5 -34 3 -84 12 -164 27 -30 6 -64 12 -75 14 -12 2 -37 6 -56 9 -19 4
-51 9 -70 12 -59 9 -75 12 -75 14 0 1 -13 3 -30 5 -16 2 -41 6 -55 9 -14 2
-42 7 -62 10 -70 11 -110 18 -132 22 -56 13 -85 17 -131 16 -27 0 -57 -2 -65
-4 -70 -18 -178 -119 -197 -183 -13 -43 -24 -98 -27 -130 -1 -11 -4 -24 -7
-30 -3 -5 -4 -20 -3 -32 0 -13 -1 -23 -5 -23 -3 0 -6 -10 -7 -22 -1 -29 -13
-109 -19 -128 -2 -8 -7 -30 -10 -49 -3 -19 -9 -39 -12 -44 -4 -6 -1 -7 6 -2
10 6 11 3 2 -13 -6 -11 -12 -37 -13 -56 -2 -20 -5 -36 -8 -36 -3 0 -6 -21 -8
-47 -2 -26 -6 -51 -9 -56 -3 -6 -7 -24 -9 -41 -1 -17 -6 -47 -9 -66 -7 -34 -9
-44 -19 -105 -3 -16 -7 -41 -10 -55 -3 -14 -8 -43 -11 -65 -6 -44 -13 -80 -15
-80 -1 0 -3 -11 -5 -25 -4 -24 -11 -67 -14 -82 0 -3 -25 -8 -53 -11 -80 -7
-109 -15 -161 -48 l-49 -29 -39 31 c-40 32 -100 54 -166 63 -71 9 -198 19
-260 20 -35 1 -63 3 -63 6 0 6 -238 4 -260 -2 -45 -12 -68 -23 -94 -45 -44
-36 -84 -96 -90 -134 -3 -19 -8 -45 -11 -59 -4 -22 -11 -88 -20 -210 -1 -19
-3 -39 -4 -44 0 -5 -42 49 -91 120 -50 71 -97 137 -105 147 -8 9 -15 20 -15
23 0 6 -39 62 -62 88 -10 11 -20 27 -23 35 -10 31 -108 82 -162 84 -7 0 -13 3
-13 7 0 3 -20 6 -45 5 -25 0 -45 -2 -45 -5 0 -3 -42 -5 -93 -6 -179 -1 -333
-14 -417 -34 -48 -11 -68 -23 -127 -70 -7 -6 -15 -5 -20 3 -9 11 -37 96 -48
142 -2 11 -23 79 -45 150 -23 72 -43 137 -44 145 -2 8 -13 44 -25 80 -65 206
-173 567 -174 582 -1 10 -5 18 -9 18 -4 0 -8 8 -8 19 0 10 -7 38 -15 61 -8 24
-17 52 -19 64 -13 61 -68 198 -91 225 -61 72 -173 103 -260 73z"/>
</g>
</svg>
